<?xml version="1.0" encoding="utf-8"?>
<!-- Generator: Adobe Illustrator 15.1.0, SVG Export Plug-In . SVG Version: 6.00 Build 0)  -->
<!DOCTYPE svg PUBLIC "-//W3C//DTD SVG 1.1//EN" "http://www.w3.org/Graphics/SVG/1.1/DTD/svg11.dtd">
<svg version="1.1" id="Layer_1" xmlns="http://www.w3.org/2000/svg" xmlns:xlink="http://www.w3.org/1999/xlink" x="0px" y="0px"
	 width="748.462px" height="463.477px" viewBox="0 0 748.462 463.477" enable-background="new 0 0 748.462 463.477"
	 xml:space="preserve">
<g>
	<path fill="#604B39" d="M610.65,162.629c-3.682-0.252-7.038-0.364-10.138-0.364c-21.262,0-30.005,5.288-42.93,7.519
		c1.492-3.866,3.144-10.348,2.457-19.153c105.39,5.577,93.473-98.445,93.473-98.445c-77.707-8.838-93.879,51.813-97.149,81.939
		c-4.55-12.735-13.855-28.204-31.632-45.979c0,0-4,16.962-18.672,16.962c0,0,40.188,27.65,40.204,65.653
		c-0.07,0.002-0.132,0.005-0.202,0.005c-21.121,0-35.584-7.169-57.248-7.169c-3.395,0-6.969,0.175-10.766,0.582
		c-55.529,5.941-101.229,59.93-85.493,128.871c17.347,76.179,74.673,117.948,115.938,117.948c19.423,0,24.616-7.077,37.568-7.077
		c12.951,0,17.308,7.084,37.523,7.084c45.04,0,99.033-44.173,115.977-117.956C716.73,218.381,667.759,166.512,610.65,162.629z"/>
	<g>
		<path fill="#B0BB1C" d="M555.587,150.41c0,0-4.853-109.913,97.925-98.224C653.512,52.186,665.86,159.253,555.587,150.41z"/>
		<g>
			<path fill="#BE1E2D" d="M600.512,162.265c-26.928,0-33.748,8.502-54.451,8.502c-21.121,0-35.584-7.169-57.248-7.169
				c-3.395,0-6.969,0.175-10.766,0.582c-55.529,5.941-101.229,59.93-85.493,128.871c17.347,76.179,74.673,117.948,115.938,117.948
				c19.423,0,24.616-7.077,37.568-7.077c12.951,0,17.308,7.084,37.523,7.084c45.04,0,99.033-44.173,115.977-117.956
				c17.169-74.669-31.802-126.538-88.911-130.421C606.968,162.377,603.612,162.265,600.512,162.265L600.512,162.265z"/>
		</g>
	</g>
</g>
<g>
	<g>
		<g>
			<g>
				<path fill="#604B39" d="M257.844,162.627c-3.678-0.251-7.038-0.364-10.134-0.364c-21.267,0-30.01,5.29-42.937,7.52
					c1.494-3.866,3.146-10.347,2.458-19.155c105.396,5.581,93.479-98.445,93.479-98.445c-77.715-8.838-93.882,51.825-97.151,81.949
					c-4.548-12.739-13.853-28.209-31.632-45.988c0,0-4,16.963-18.672,16.963c0,0,40.19,27.65,40.204,65.653
					c-0.07,0.001-0.132,0.005-0.202,0.005c-21.122,0-35.584-7.173-57.256-7.173c-3.387,0-6.96,0.178-10.758,0.585
					c-55.528,5.941-101.228,59.927-85.494,128.872C57.097,369.23,114.423,411,155.689,411c19.424,0,24.613-7.08,37.569-7.08
					c12.952,0,17.308,7.088,37.522,7.088c45.041,0,99.031-44.176,115.979-117.958C363.924,218.38,314.957,166.51,257.844,162.627z"
					/>
			</g>
		</g>
		<g>
			<path fill="#C1C43F" d="M257.844,162.627c-3.678-0.251-7.038-0.364-10.134-0.364c-26.927,0-33.748,8.502-54.451,8.502
				c-21.122,0-35.584-7.173-57.256-7.173c-3.387,0-6.96,0.178-10.758,0.585c-55.528,5.941-101.228,59.927-85.494,128.872
				C57.097,369.23,114.423,411,155.689,411c19.424,0,24.613-7.08,37.569-7.08c12.952,0,17.308,7.088,37.522,7.088
				c45.041,0,99.031-44.176,115.979-117.958C363.924,218.38,314.957,166.51,257.844,162.627z M237.122,249.38
				c10.433,11.669-32.88,21.602-32.88,21.602S226.688,237.715,237.122,249.38z M156.829,324.433
				c-9.488-12.448,34.469-18.963,34.469-18.963S166.32,336.881,156.829,324.433z M152.813,289.438
				c-3.038-15.355,39.298-1.86,39.298-1.86S155.86,304.796,152.813,289.438z M158.673,253.399
				c4.24-15.067,35.868,16.153,35.868,16.153S154.418,268.463,158.673,253.399z M240.939,318.465
				c-3.054,15.354-37.023-13.301-37.023-13.301S243.997,303.118,240.939,318.465z M204.931,287.003c0,0,34.803-19.994,39.03-4.926
				C248.198,297.15,204.931,287.003,204.931,287.003z"/>
		</g>
	</g>
	<path fill="#B0BB1C" d="M202.785,150.408c0,0-4.852-109.913,97.926-98.225C300.71,52.183,313.058,159.251,202.785,150.408z"/>
	<path fill="#EFE8B4" d="M314.333,214.121c-13.537-18.238-34.628-29.608-57.873-31.186c-3.077-0.209-6.019-0.318-8.75-0.318
		c-11.557,0-18.052,1.822-25.582,3.926c-7.693,2.147-16.405,4.581-28.869,4.581c-12.506,0-22.989-2.097-32.24-3.946
		c-8.654-1.736-16.126-3.228-25.016-3.228c-2.845,0-5.658,0.151-8.592,0.465c-21.978,2.353-42.104,14.231-55.21,32.597
		c-14.134,19.8-18.606,45.196-12.604,71.507c15.863,69.669,66.721,102.127,96.093,102.127c7.355,0,11.313-1.333,16.315-3.015
		c5.387-1.813,12.092-4.069,21.253-4.069c9.177,0,15.715,2.259,20.974,4.073c4.88,1.686,8.736,3.015,16.548,3.015
		c35.725,0,81.452-38.212,96.144-102.158C335.249,252.264,324.677,228.054,314.333,214.121z M237.122,249.38
		c10.433,11.669-32.88,21.602-32.88,21.602S226.688,237.715,237.122,249.38z M156.829,324.433
		c-9.488-12.448,34.469-18.963,34.469-18.963S166.32,336.881,156.829,324.433z M152.813,289.438
		c-3.038-15.355,39.298-1.86,39.298-1.86S155.86,304.796,152.813,289.438z M158.673,253.399
		c4.24-15.067,35.868,16.153,35.868,16.153S154.418,268.463,158.673,253.399z M240.939,318.465
		c-3.054,15.354-37.023-13.301-37.023-13.301S243.997,303.118,240.939,318.465z M204.931,287.003c0,0,34.803-19.994,39.03-4.926
		C248.198,297.15,204.931,287.003,204.931,287.003z"/>
</g>
</svg>
